:SAMPLES-PER-SECOND 30
:FULLY-SPECIFIED
:DEGREES
62
root  27.0063 38.2384 -29.3757 146.34 -83.9547 -149.842
RightUpLeg  -23.9221 -13.1056 6.41889
RightLeg  21.7844 -0.537363 -0.499019
RightFoot  4.53251 0.762933 -5.22751
RightToes  -1.74624e-010 0 -3.6325e-017
Spine  6.06778 -2.4107 9.15338
Spine1  7.72807 -2.26651 0.774324
HEad  -13.6649 5.78804 -6.51134
LeftShoulder1  8.35993 -11.7382 -47.8678
LeftArm  -7.41714 11.3751 -28.1612
LeftForeArm  23.1716 -23.2628 -3.79999
LeftHand  -0.244104 0.0205437 5.32207
RightShoulder  5.95119 9.0769 41.0998
RightArm  -9.83615 -16.5221 29.6399
RightForeArm  6.54011 7.45614 6.20404
RightHand  -0.988424 1.98051 -15.684
LeftUpLeg  15.1965 11.3684 6.71088
LeftLeg  33.7177 1.25526 1.28575
LeftFoot  -3.88502 0.8556 -13.3809
LeftToes  -2.54691e-011 4.12133e-011 -4.68171e-012
63
root  25.4661 38.3111 -29.5479 135.307 -83.309 -138.257
RightUpLeg  -22.8491 -14.1177 7.53855
RightLeg  24.1896 -0.129792 -0.291305
RightFoot  0.688338 0.537287 -5.04348
RightToes  -1.74624e-010 0 -3.6325e-017
Spine  5.85785 -2.38664 11.6736
Spine1  7.47979 -1.87937 0.694533
HEad  -13.4763 5.79385 -6.01081
LeftShoulder1  8.33246 -11.7247 -47.7512
LeftArm  -6.08854 13.6611 -29.3206
LeftForeArm  23.1142 -21.5536 -3.74626
LeftHand  -0.244104 0.0205437 5.32207
RightShoulder  5.94413 9.12717 40.8702
RightArm  -8.83193 -15.0908 30.566
RightForeArm  4.68933 10.1771 6.52927
RightHand  -1.03032 2.15553 -15.9694
LeftUpLeg  7.93074 9.29494 7.41718
LeftLeg  45.5291 2.76176 3.40296
LeftFoot  7.31881 1.64552 -10.316
LeftToes  -2.54691e-011 4.12133e-011 -4.68171e-012
64
root  24.0407 38.4601 -29.6902 124.915 -83.0345 -127.763
RightUpLeg  -20.9829 -16.1002 8.12596
RightLeg  25.3925 0.888846 0.21483
RightFoot  -1.74331 0.388561 -4.76783
RightToes  -1.74624e-010 0 -3.6325e-017
Spine  6.08285 -2.2608 13.7174
Spine1  7.63025 -1.36757 0.570841
HEad  -13.4221 4.6201 -4.9365
LeftShoulder1  8.37729 -11.7901 -47.8039
LeftArm  -5.28212 14.8669 -30.1521
LeftForeArm  24.0737 -19.9474 -3.90051
LeftHand  -0.244104 0.0205437 5.32207
RightShoulder  5.94961 9.12157 40.9306
RightArm  -4.96194 -13.3095 31.1359
RightForeArm  0.674933 14.2992 6.47943
RightHand  -1.07461 2.30911 -16.3207
LeftUpLeg  0.784566 7.38432 7.75906
LeftLeg  55.4756 3.02027 5.19952
LeftFoot  11.7038 1.24609 -6.36205
LeftToes  -2.54691e-011 4.12133e-011 -4.68171e-012
65
root  22.5883 38.8069 -29.8418 122.264 -83.1583 -125.58
RightUpLeg  -17.5643 -17.7145 7.32713
RightLeg  24.8996 2.04862 0.87462
RightFoot  -3.13048 0.302506 -4.50377
RightToes  -1.74624e-010 0 -3.6325e-017
Spine  6.46639 -1.77954 14.3837
Spine1  8.02378 -0.594004 0.0696157
HEad  -13.5805 3.54941 -4.07459
LeftShoulder1  8.47731 -11.9083 -48.0073
LeftArm  -5.05356 15.8591 -30.5641
LeftForeArm  25.1997 -19.1097 -4.03435
LeftHand  -0.244104 0.0205437 5.32207
RightShoulder  6.00927 9.18744 41.1426
RightArm  0.469724 -11.3146 31.3963
RightForeArm  -4.29436 19.1633 5.7222
RightHand  -1.10674 2.32684 -16.7601
LeftUpLeg  -4.89867 6.61484 7.33563
LeftLeg  61.634 2.90865 6.41211
LeftFoot  9.41899 0.620443 -3.68824
LeftToes  -2.54691e-011 4.12133e-011 -4.68171e-012
66
root  21.1374 39.2027 -29.9977 124.748 -83.5278 -128.546
RightUpLeg  -13.4177 -18.0635 5.55691
RightLeg  23.3007 2.34499 1.58527
RightFoot  -4.35485 0.21309 -3.96425
RightToes  -1.74624e-010 0 -3.6325e-017
Spine  6.63071 -1.12724 14.2659
Spine1  8.37683 0.281917 -0.683378
HEad  -13.2709 2.79947 -3.54747
LeftShoulder1  8.51315 -11.9577 -48.0569
LeftArm  -4.84394 17.3116 -30.7949
LeftForeArm  25.4421 -19.169 -4.02344
LeftHand  -0.244104 0.0205437 5.32207
RightShoulder  6.0901 9.35011 41.1711
RightArm  3.58015 -9.52177 31.6183
RightForeArm  -6.23283 23.8797 5.37709
RightHand  -1.12409 2.16812 -17.3597
LeftUpLeg  -9.6663 6.60913 6.50345
LeftLeg  63.8498 2.70449 6.63483
LeftFoot  5.21156 0.374135 -2.81507
LeftToes  -2.54691e-011 4.12133e-011 -4.68171e-012
67
root  19.7103 39.5324 -30.1289 125.966 -83.8114 -129.95
RightUpLeg  -9.3882 -16.6809 3.67462
RightLeg  21.239 0.872973 2.46215
RightFoot  -5.34431 0.128622 -3.14988
RightToes  -1.74624e-010 0 -3.6325e-017
Spine  6.45312 -0.543199 14.3976
Spine1  8.50211 1.04969 -1.50007
HEad  -12.3134 2.16047 -3.19599
LeftShoulder1  8.44833 -11.8929 -47.8894
LeftArm  -4.50741 19.0448 -30.9208
LeftForeArm  24.8401 -19.5424 -3.98179
LeftHand  -0.244104 0.0205437 5.32207
RightShoulder  6.1068 9.45867 40.9189
RightArm  3.60826 -8.17019 31.9045
RightForeArm  -4.45934 28.3156 6.35423
RightHand  -1.12569 1.93064 -17.9253
LeftUpLeg  -13.9808 6.5574 5.73795
LeftLeg  62.6644 2.45831 5.79522
LeftFoot  2.34365 0.292352 -2.54964
LeftToes  -2.54691e-011 4.12133e-011 -4.68171e-012
68
root  18.2965 39.8172 -30.2334 125.443 -84.0263 -129.474
RightUpLeg  -5.47716 -13.5564 2.08913
RightLeg  18.6869 -2.30764 3.35458
RightFoot  -5.91083 0.0696973 -2.31656
RightToes  -1.74624e-010 0 -3.6325e-017
Spine  6.07171 0.0129079 14.6883
Spine1  8.54999 1.73498 -2.30845
HEad  -11.0561 1.55348 -3.09508
LeftShoulder1  8.35821 -11.788 -47.7002
LeftArm  -4.38507 20.6418 -30.8347
LeftForeArm  24.1186 -19.7733 -3.96765
LeftHand  -0.244104 0.0205437 5.32207
RightShoulder  6.06943 9.45838 40.6486
RightArm  3.96075 -7.1128 32.0811
RightForeArm  -3.16077 32.6637 7.40311
RightHand  -1.09536 1.64312 -18.1385
LeftUpLeg  -17.448 6.52795 4.97544
LeftLeg  58.2862 2.12462 4.27227
LeftFoot  0.417545 0.188938 -1.85843
LeftToes  -2.54691e-011 4.12133e-011 -4.68171e-012
69
root  16.8978 40.0236 -30.3187 126.434 -84.2905 -130.484
RightUpLeg  -1.77611 -10.6622 0.924872
RightLeg  16.1005 -5.01411 4.02956
RightFoot  -6.7119 0.0136194 -1.4465
RightToes  -1.74624e-010 0 -3.6325e-017
Spine  5.59161 0.629511 14.6679
Spine1  8.72527 2.41525 -3.06007
HEad  -9.87422 1.30612 -3.43246
LeftShoulder1  8.29663 -11.7151 -47.5733
LeftArm  -4.69545 22.0427 -30.5382
LeftForeArm  23.7135 -19.9093 -3.93973
LeftHand  -0.244104 0.0205437 5.32207
RightShoulder  6.06691 9.47271 40.5815
RightArm  4.62816 -6.04959 31.9267
RightForeArm  -2.47264 36.4322 8.42764
RightHand  -1.0373 1.31682 -18.0035
LeftUpLeg  -19.7623 7.09927 4.03214
LeftLeg  50.9801 1.66239 2.65913
LeftFoot  -1.33037 0.150417 -1.64058
LeftToes  -2.54691e-011 4.12133e-011 -4.68171e-012
